<!-- icon666.com - MILLIONS vector ICONS FREE --><svg viewBox="0 0 512 512" xmlns="http://www.w3.org/2000/svg"><path d="m512 256c0 141.386719-114.613281 256-256 256s-256-114.613281-256-256 114.613281-256 256-256 256 114.613281 256 256zm0 0" fill="#6b5b85"></path><path d="m496.277344 344.519531-254.121094-254.117187-138.992188 276.597656 144.863282 144.863281c2.648437.082031 5.304687.136719 7.972656.136719 110.269531 0 204.246094-69.71875 240.277344-167.480469zm0 0" fill="#3f334b"></path><path d="m435 323.824219-331.835938 7.804687v35.371094h331.835938zm0 0" fill="#fff"></path><path d="m435 323.824219-179.40625 4.21875v38.957031h179.40625zm0 0" fill="#e9edf5"></path><path d="m115.507812 119.542969-12.34375 212.085937h331.835938v-13.636718c0-22.101563-14.996094-41.390626-36.414062-46.835938l-53.789063-13.679688c-9.90625-2.523437-19.289063-6.773437-27.714844-12.558593l-24.957031-17.140625c-19.367188-13.300782-32.507812-33.890625-36.417969-57.054688l-13.550781-80.320312zm0 0" fill="#ffce00"></path><path d="m435 317.992188c0-22.101563-14.996094-41.390626-36.414062-46.835938l-53.789063-13.679688c-9.90625-2.519531-19.289063-6.773437-27.714844-12.558593l-24.957031-17.140625c-19.367188-13.300782-32.507812-33.886719-36.417969-57.054688l-.113281-.667968v161.574218h179.40625zm0 0" fill="#ffb600"></path><path d="m211.132812 97.539062s5.835938 112.59375 24.183594 129.863282c18.347656 17.269531 108.296875 56.84375 108.296875 56.84375s23.027344 10.796875 23.027344 47.382812h-263.476563l12.34375-212.085937zm0 0" fill="#fdba12"></path><path d="m343.613281 284.246094s-55.292969-24.328125-88.019531-43.160156v90.542968h111.046875c0-36.585937-23.027344-47.382812-23.027344-47.382812zm0 0" fill="#ffa300"></path><path d="m171.609375 120.902344h83.46875v33.101562h-83.46875zm0 0" fill="#ffa426"></path><path d="m205.121094 190.152344 64.015625-25.597656 11.140625 27.855468-64.015625 25.601563zm0 0" fill="#fff"></path><path d="m269.144531 164.542969-13.550781 5.417969v32.308593l24.691406-9.871093zm0 0" fill="#e9edf5"></path><path d="m239.125 241.78125 50.730469-39.078125 18.308593 23.765625-50.730468 39.082031zm0 0" fill="#fff"></path><path d="m308.152344 226.46875-18.308594-23.765625-34.25 26.382813v34.089843l1.832031 2.375zm0 0" fill="#e9edf5"></path><path d="m289.367188 277.105469 35.976562-45.695313 23.570312 18.558594-35.976562 45.695312zm0 0" fill="#e9edf5"></path><path d="m213.34375 263.558594c0 21.179687-17.167969 38.34375-38.34375 38.34375s-38.34375-17.164063-38.34375-38.34375c0-21.175782 17.167969-38.34375 38.34375-38.34375s38.34375 17.167968 38.34375 38.34375zm0 0" fill="#ffce00"></path></svg>